<svg width="18" height="18" viewBox="0 0 18 18" fill="none" xmlns="http://www.w3.org/2000/svg">
<path d="M17.165 2.905L18 2.065C16.62 0.69 14.81 0 13 0C11.19 0 9.38 0.695 8 2.065L8.83 2.895C9.985 1.75 11.49 1.175 13 1.175C14.51 1.175 16.015 1.755 17.165 2.905ZM16.335 3.665C15.415 2.745 14.21 2.285 13 2.285C11.79 2.285 10.585 2.745 9.665 3.665L10.495 4.495C11.19 3.81 12.09 3.465 13 3.465C13.905 3.465 14.81 3.81 15.495 4.5L16.335 3.665ZM16 10H14V6H12V10H2C0.895 10 0 10.895 0 12V16C0 17.105 0.895 18 2 18H16C17.105 18 18 17.105 18 16V12C18 10.895 17.105 10 16 10ZM5 15H3V13H5V15ZM8.5 15H6.5V13H8.5V15ZM12 15H10V13H12V15Z" fill="#767680"/>
</svg>
