<svg width="20" height="16" viewBox="0 0 20 16" fill="none" xmlns="http://www.w3.org/2000/svg">
<path d="M18 0H2C0.895 0 0 0.895 0 2V14C0 15.105 0.895 16 2 16H18C19.105 16 20 15.105 20 14V2C20 0.895 19.105 0 18 0ZM5.755 12.245L4.34 13.66C2.785 12.095 2 10.05 2 8C2 5.95 2.785 3.905 4.345 2.345L5.76 3.76C4.59 4.925 4 6.465 4 8C4 9.535 4.585 11.075 5.755 12.245ZM10 12C7.79 12 6 10.21 6 8C6 5.79 7.79 4 10 4C12.21 4 14 5.79 14 8C14 10.21 12.21 12 10 12ZM15.655 13.655L14.24 12.24C15.415 11.075 16 9.535 16 8C16 6.465 15.41 4.925 14.245 3.755L15.66 2.34C17.215 3.905 18 5.95 18 8C18 10.05 17.215 12.095 15.655 13.655ZM10 6C8.895 6 8 6.895 8 8C8 9.105 8.895 10 10 10C11.105 10 12 9.105 12 8C12 6.895 11.105 6 10 6Z" fill="#6BC089"/>
</svg>
